<svg id="eoT1Z3wVxGp1" xmlns="http://www.w3.org/2000/svg" xmlns:xlink="http://www.w3.org/1999/xlink" viewBox="0 0 300 300" shape-rendering="geometricPrecision" text-rendering="geometricPrecision"><polygon points="0,-28.054085 24.29555,-14.027042 24.29555,14.027042 0,28.054084 -24.29555,14.027042 -24.29555,-14.027042 0,-28.054085" transform="matrix(1.100347 0 0 1.100347 233.550356 68.790437)" stroke="#fff" stroke-width="8"/><polygon points="0,-28.054085 24.29555,-14.027042 24.29555,14.027042 0,28.054084 -24.29555,14.027042 -24.29555,-14.027042 0,-28.054085" transform="matrix(1.100347 0 0 1.100347 47.550356 141.790437)" stroke="#fff" stroke-width="8"/><polygon points="0,-28.054085 24.29555,-14.027042 24.29555,14.027042 0,28.054084 -24.29555,14.027042 -24.29555,-14.027042 0,-28.054085" transform="matrix(1.100347 0 0 1.100347 233.550356 220.790437)" stroke="#fff" stroke-width="8"/><line x1="-60.792205" y1="26.057986" x2="60.792205" y2="-26.057986" transform="matrix(1.113233 0 0 1.113233 138.462602 97.848423)" fill="none" stroke="#fff" stroke-width="8"/><line x1="-60.792205" y1="26.057986" x2="60.792205" y2="-26.057986" transform="matrix(1.113233 0 0-1.111352 139.462602 185.848423)" fill="none" stroke="#fff" stroke-width="8"/></svg>
